<svg width="1513" height="983" viewBox="0 0 1513 983" fill="none" xmlns="http://www.w3.org/2000/svg">
<path d="M661.238 -18.5683C429.403 -18.5683 359.881 34.8334 266.712 97.3496C67.0012 231.355 -59.2958 472.464 -195.202 661.977C-155.816 743.205 -89.6184 906.819 109.459 931.531C439.368 972.483 1190.11 989.201 1253 556.172C1276.87 309.817 969.711 55.2616 829.593 -18.5683L913.429 -38.9571H1286.65C1330.96 -75.5236 1290.99 -114.352 1346.97 -38.9571C1414.64 52.1788 1510.89 283.173 1512.32 503.945C1514.05 771.76 1423.47 956.598 1238.11 1048.26L1162.95 1076.51C1388.08 933.262 1478.19 786.595 1475.66 517.077C1473.68 306.422 1390.9 133.05 1286.65 -38.9571H913.429C1037.11 7.3885 1331.81 324.847 1286.65 568.811C1226.17 895.626 870.28 976.412 455.668 1048.26C336.017 1072.9 226.18 1081.58 141.049 1063.37C-32.2489 1026.31 -235.504 846.574 -315.469 761.341C-180.602 559.414 2.02075 192.388 204.275 55.2616C406.529 -81.8648 555.612 -57.6442 661.238 -57.6442L661.29 -57.6254C663.996 -56.6504 769.704 -18.5683 661.238 -18.5683Z" fill="url(#paint0_radial_1_3)"/>
<defs>
<radialGradient id="paint0_radial_1_3" cx="0" cy="0" r="1" gradientUnits="userSpaceOnUse" gradientTransform="translate(447.294 197.188) rotate(23.0007) scale(1329.8 1967.88)">
<stop stop-color="#FF5C00"/>
<stop offset="0.32432" stop-color="#DB4441"/>
<stop offset="0.744566" stop-color="#7000FF"/>
<stop offset="0.922754" stop-color="#07ECC3"/>
</radialGradient>
</defs>
</svg>
