<svg xmlns="http://www.w3.org/2000/svg" width="48" height="48" fill="white" viewBox="0 0 24 24">
  <path d="M12 4.5a1 1 0 0 1-1-1V2a1 1 0 1 1 2 0v1.5a1 1 0 0 1-1 1zm0 15a1 1 0 0 1 1 1V22a1 1 0 1 1-2 0v-1.5a1 1 0 0 1 1-1zm9-7.5a1 1 0 0 1-1 1h-1.5a1 1 0 1 1 0-2H20a1 1 0 0 1 1 1zm-15 0a1 1 0 0 1-1 1H2a1 1 0 1 1 0-2h1.5a1 1 0 0 1 1 1zM17.657 6.343a1 1 0 0 1 0 1.414L16.243 9.17a1 1 0 1 1-1.414-1.414l1.414-1.414a1 1 0 0 1 1.414 0zM7.757 16.243a1 1 0 0 1 0 1.414L6.343 19.07a1 1 0 1 1-1.414-1.414l1.414-1.414a1 1 0 0 1 1.414 0zM6.343 7.757a1 1 0 0 1 1.414 0L9.17 9.17a1 1 0 1 1-1.414 1.414L6.343 9.17a1 1 0 0 1 0-1.414zm11.314 8.486a1 1 0 0 1 0 1.414l-1.414 1.414a1 1 0 1 1-1.414-1.414l1.414-1.414a1 1 0 0 1 1.414 0zM12 7a5 5 0 1 1 0 10A5 5 0 0 1 12 7z"></path>
</svg>
